<svg xmlns="http://www.w3.org/2000/svg" width="23.853" height="27.26" viewBox="0 0 23.853 27.26"><g transform="translate(-43.714)"><g transform="translate(43.714)"><g transform="translate(0)"><path d="M61.6,0H51.381a3.549,3.549,0,0,0-3.407,3.408l-.985.023a3.411,3.411,0,0,0-3.275,3.384V23.853a3.549,3.549,0,0,0,3.408,3.407H59.9a3.549,3.549,0,0,0,3.407-3.407h.852a3.549,3.549,0,0,0,3.408-3.407V6.835ZM59.9,25.556H47.122a1.786,1.786,0,0,1-1.7-1.7V6.815a1.689,1.689,0,0,1,1.623-1.676l.933-.028V20.445a3.549,3.549,0,0,0,3.407,3.407H61.6A1.786,1.786,0,0,1,59.9,25.556Zm5.963-5.111a1.786,1.786,0,0,1-1.7,1.7H51.381a1.786,1.786,0,0,1-1.7-1.7V3.408a1.786,1.786,0,0,1,1.7-1.7H59.9c-.014,1.962,0,3.429,0,3.429a3.51,3.51,0,0,0,3.407,3.386h2.556ZM63.307,6.815c-.907,0-1.7-1.648-1.7-2.533V1.728l4.259,5.087Zm-1.7,5.127H53.937a.851.851,0,1,0,0,1.7H61.6a.851.851,0,1,0,0-1.7Zm0,4.255H53.937a.851.851,0,1,0,0,1.7H61.6a.851.851,0,1,0,0-1.7Z" transform="translate(-43.714)" fill="#ccc"/></g></g></g></svg>