<svg xmlns="http://www.w3.org/2000/svg" width="25.19" height="22.691" viewBox="0 0 25.19 22.691"><path d="M4.929,10.488C2.211,10.488,0,8.63,0,6.348V.923A1.024,1.024,0,0,1,1.1,0,1.024,1.024,0,0,1,2.2.923V6.348A2.544,2.544,0,0,0,4.929,8.642H20.261a2.545,2.545,0,0,0,2.732-2.295V1.01a1.116,1.116,0,0,1,2.2,0V6.348c0,2.283-2.211,4.14-4.929,4.14Z" transform="translate(0 12.203)" fill="#ccc"/><path d="M4.26,1.07V13.7L1.826,11.263A1.07,1.07,0,1,0,.313,12.775l4.262,4.258a1.075,1.075,0,0,0,.754.316,1.058,1.058,0,0,0,.757-.319l4.255-4.254a1.07,1.07,0,1,0-1.514-1.514L6.4,13.694V1.07a1.07,1.07,0,1,0-2.14,0Z" transform="translate(7.053 0)" fill="#ccc"/></svg>