<svg xmlns="http://www.w3.org/2000/svg" width="33.777" height="22" viewBox="0 0 33.777 22"><g transform="translate(-16 -98.647)"><circle cx="3.087" cy="3.087" r="3.087" transform="translate(43.603 98.647)" fill="#cccfd4"/><path d="M36.166,160H22.472c-.8,0-1,.215-.809.752.107.315.6.58.9.731.788.415,11.732,6.382,12.14,6.6a3.578,3.578,0,0,0,2.936,0c.271-.143,5.2-2.829,8.706-4.735A5.7,5.7,0,0,1,45.262,160Z" transform="translate(-4.304 -59.413)" fill="#cccfd4"/><path d="M37.021,190.293l6.233,7.014c.152.152.22.334.136.425s-.288.038-.447-.106l-7.477-6.309c-1.13.728-1.926,1.228-2.063,1.3a3.012,3.012,0,0,1-1.555.334,3.012,3.012,0,0,1-1.555-.334c-.144-.076-.933-.576-2.063-1.3l-7.477,6.309c-.152.152-.356.2-.447.106s-.023-.273.129-.425l6.226-7.014c-3.693-2.389-9.335-6.362-9.957-6.681-.667-.341-.705.061-.705.372v15.546a2.047,2.047,0,0,0,1.782,1.585H45.916a1.883,1.883,0,0,0,1.63-1.585V187.768a6.045,6.045,0,0,1-4.234-1.724C41.341,187.4,38.929,189.059,37.021,190.293Z" transform="translate(0 -80.467)" fill="#cccfd4"/></g></svg>