<svg xmlns="http://www.w3.org/2000/svg" width="26.212" height="23.829" viewBox="0 0 26.212 23.829"><g transform="translate(-1 -4)"><path d="M22.447,18.3a4.647,4.647,0,0,0-3.753,1.847L10.472,16.63a2.919,2.919,0,0,0,.06-.715,2.919,2.919,0,0,0-.06-.715l8.221-3.515a4.647,4.647,0,0,0,3.753,1.847,4.766,4.766,0,1,0-4.766-4.766,2.919,2.919,0,0,0,.06.715L9.519,13a4.647,4.647,0,0,0-3.753-1.847,4.766,4.766,0,1,0,0,9.532,4.647,4.647,0,0,0,3.753-1.847l8.221,3.515a2.919,2.919,0,0,0-.06.715A4.766,4.766,0,1,0,22.447,18.3Zm0-11.915a2.383,2.383,0,1,1-2.383,2.383A2.383,2.383,0,0,1,22.447,6.383ZM5.766,18.3a2.383,2.383,0,1,1,2.383-2.383A2.383,2.383,0,0,1,5.766,18.3Zm16.681,7.149a2.383,2.383,0,1,1,2.383-2.383A2.383,2.383,0,0,1,22.447,25.447Z" fill="#ccc"/></g></svg>