<svg xmlns="http://www.w3.org/2000/svg" width="21.83" height="27.398" viewBox="0 0 21.83 27.398"><path d="M3.821,27.4A3.837,3.837,0,0,1,0,23.583V3.815A3.835,3.835,0,0,1,3.821,0H14.275a.95.95,0,0,1,.683.3l6.609,6.933a.988.988,0,0,1,.264.653v15.7A3.837,3.837,0,0,1,18.01,27.4ZM1.895,3.815V23.583A1.95,1.95,0,0,0,3.821,25.5H18.01a1.95,1.95,0,0,0,1.926-1.921V8.821h-3.46a3.142,3.142,0,0,1-3.141-3.136V1.895H3.821A1.949,1.949,0,0,0,1.895,3.815Zm13.334,1.87a1.244,1.244,0,0,0,1.247,1.24H18.65L15.229,3.335ZM5.588,22.931a.947.947,0,0,1,0-1.895H16.242a.947.947,0,1,1,.007,1.895Zm4.38-4.359v-6.3L7.821,14.576a.961.961,0,0,1-1.346.05.955.955,0,0,1-.3-.667.93.93,0,0,1,.256-.675l3.791-4.069a.942.942,0,0,1,1.382,0l3.8,4.073a.929.929,0,0,1,.253.678.945.945,0,0,1-1.635.615l-2.149-2.311v6.3a.947.947,0,1,1-1.895,0Z" fill="#ccc"/></svg>