<svg xmlns="http://www.w3.org/2000/svg" width="24.6" height="30.426" viewBox="0 0 24.6 30.426"><g transform="translate(4.606 7.824)" fill="none"><path d="M2.608,0H17.386a2.608,2.608,0,0,1,2.608,2.608V19.994A2.608,2.608,0,0,1,17.386,22.6H2.608A2.608,2.608,0,0,1,0,19.994V2.608A2.608,2.608,0,0,1,2.608,0Z" stroke="none"/><path d="M 2.607933044433594 1.999998092651367 C 2.272722244262695 1.999998092651367 2.000001907348633 2.272716522216797 2.000001907348633 2.607927322387695 L 2.000001907348633 19.99412727355957 C 2.000001907348633 20.32933807373047 2.272722244262695 20.6020565032959 2.607933044433594 20.6020565032959 L 17.38619232177734 20.6020565032959 C 17.72140312194824 20.6020565032959 17.9941234588623 20.32933807373047 17.9941234588623 19.99412727355957 L 17.9941234588623 2.607927322387695 C 17.9941234588623 2.272716522216797 17.72140312194824 1.999998092651367 17.38619232177734 1.999998092651367 L 2.607933044433594 1.999998092651367 M 2.607933044433594 -1.9073486328125e-06 L 17.38619232177734 -1.9073486328125e-06 C 18.82651329040527 -1.9073486328125e-06 19.9941234588623 1.167606353759766 19.9941234588623 2.607927322387695 L 19.9941234588623 19.99412727355957 C 19.9941234588623 21.4344482421875 18.82651329040527 22.6020565032959 17.38619232177734 22.6020565032959 L 2.607933044433594 22.6020565032959 C 1.167612075805664 22.6020565032959 1.9073486328125e-06 21.4344482421875 1.9073486328125e-06 19.99412727355957 L 1.9073486328125e-06 2.607927322387695 C 1.9073486328125e-06 1.167606353759766 1.167612075805664 -1.9073486328125e-06 2.607933044433594 -1.9073486328125e-06 Z" stroke="none" fill="#ccc"/></g><g transform="translate(8.083 12.304)"><path d="M11.431.739H-.131A.869.869,0,0,1-1-.131.869.869,0,0,1-.131-1H11.431a.869.869,0,0,1,.869.869A.869.869,0,0,1,11.431.739Z" transform="translate(1 1)" fill="#ccc"/><path d="M11.431.739H-.131A.869.869,0,0,1-1-.131.869.869,0,0,1-.131-1H11.431a.869.869,0,0,1,.869.869A.869.869,0,0,1,11.431.739Z" transform="translate(1 4.582)" fill="#ccc"/><path d="M11.431.739H-.131A.869.869,0,0,1-1-.131.869.869,0,0,1-.131-1H11.431a.869.869,0,0,1,.869.869A.869.869,0,0,1,11.431.739Z" transform="translate(1 8.164)" fill="#ccc"/><path d="M7.444.739H-.131A.869.869,0,0,1-1-.131.869.869,0,0,1-.131-1H7.444a.869.869,0,0,1,.869.869A.869.869,0,0,1,7.444.739Z" transform="translate(1 11.746)" fill="#ccc"/></g><path d="M4.744,24.984H0V0H6.443a2.612,2.612,0,0,0-.1.71V1.738H1.738V23.245H4.744v1.738ZM21.3,6.033H19.566V1.738H15.907V.71a2.614,2.614,0,0,0-.1-.71H21.3V6.032Z" transform="translate(0 1.897)" fill="#ccc"/><path d="M2.608,1.739a.87.87,0,0,0-.869.869v.869H7.824V2.608a.87.87,0,0,0-.869-.869H2.608M2.608,0H6.954A2.608,2.608,0,0,1,9.562,2.608V5.216H0V2.608A2.608,2.608,0,0,1,2.608,0Z" transform="translate(6.345)" fill="#ccc"/></svg>